# xmcd
#
# Track frame offsets:
#	150
#	16657
#	31222
#	45725
#	61875
#	80957
#	98525
#	121085
#	140867
#	155455
#	177855
#	199005
#
# Disc length: 2844 seconds
#
# Revision: 1
# Processed by: cddbd v1.5.1PL0 Copyright (c) Steve Scherf et al.
# Submitted via: CDex 1.50Beta5
#
DISCID=960b1a0c
DTITLE=狩人 - BEST〜女にかえる秋〜
DYEAR=1994
DGENRE=Pop
TTITLE0=女にかえる秋
TTITLE1=アメリカ橋
TTITLE2=悲しみ・クライマックス
TTITLE3=ロンググッバイ
TTITLE4=卒業メッセージ
TTITLE5=若き旅人
TTITLE6=あずさ2号
TTITLE7=コスモス街道
TTITLE8=国道ささめ雪
TTITLE9=みちのく夏愁
TTITLE10=青春物語
TTITLE11=八月のアニバーサル
EXTD=
EXTT0=
EXTT1=
EXTT2=
EXTT3=
EXTT4=
EXTT5=
EXTT6=
EXTT7=
EXTT8=
EXTT9=
EXTT10=
EXTT11=
PLAYORDER=
